<?xml version="1.0" encoding="UTF-8"?>
<svg xmlns="http://www.w3.org/2000/svg" xmlns:xlink="http://www.w3.org/1999/xlink" width="30px" height="23px" viewBox="0 0 29 23" version="1.1">
<g id="surface1">
<path style=" stroke:none;fill-rule:nonzero;fill:rgb(0%,0%,0%);fill-opacity:1;" d="M 25.910156 0.0390625 C 25.703125 0.105469 25.519531 0.257812 25.363281 0.496094 C 25.289062 0.613281 25.140625 0.976562 24.148438 3.503906 L 23.78125 4.429688 L 0.503906 4.429688 L 0.367188 4.503906 C 0.15625 4.609375 0.0351562 4.785156 0.0078125 5.019531 C -0.0078125 5.164062 0.101562 5.707031 0.195312 5.933594 C 0.261719 6.097656 0.449219 6.726562 1.359375 9.816406 C 1.574219 10.542969 1.804688 11.339844 1.878906 11.589844 C 1.992188 11.976562 2.402344 13.359375 3.003906 15.40625 C 3.082031 15.679688 3.214844 16.128906 3.296875 16.40625 C 3.433594 16.863281 3.445312 16.929688 3.453125 17.144531 C 3.460938 17.507812 3.558594 17.679688 3.789062 17.746094 C 3.890625 17.773438 5.550781 17.78125 5.765625 17.75 C 5.84375 17.742188 5.871094 17.746094 5.859375 17.765625 C 5.851562 17.78125 5.832031 17.789062 5.816406 17.789062 C 5.804688 17.789062 5.71875 17.824219 5.632812 17.867188 C 5.078125 18.121094 4.578125 18.640625 4.339844 19.207031 C 3.898438 20.25 4.113281 21.445312 4.878906 22.226562 C 6.28125 23.65625 8.59375 22.972656 9.101562 20.988281 C 9.179688 20.6875 9.199219 20.164062 9.144531 19.84375 C 9.054688 19.320312 8.8125 18.828125 8.453125 18.433594 C 8.210938 18.171875 7.808594 17.90625 7.488281 17.789062 L 7.375 17.75 L 7.976562 17.734375 C 8.558594 17.722656 11.859375 17.6875 14.953125 17.664062 C 15.792969 17.65625 16.527344 17.644531 16.585938 17.640625 C 16.71875 17.628906 16.640625 17.660156 16.449219 17.699219 C 16.003906 17.78125 15.464844 18.089844 15.148438 18.441406 C 14.667969 18.984375 14.433594 19.589844 14.433594 20.304688 C 14.433594 21.042969 14.667969 21.65625 15.144531 22.167969 C 15.507812 22.5625 15.910156 22.800781 16.402344 22.917969 C 17.777344 23.25 19.15625 22.316406 19.449219 20.859375 C 19.625 19.984375 19.359375 19.046875 18.753906 18.421875 C 18.339844 17.992188 17.894531 17.761719 17.308594 17.664062 C 17.164062 17.640625 17.351562 17.632812 18.632812 17.617188 C 19.605469 17.609375 20.160156 17.59375 20.214844 17.578125 C 20.261719 17.5625 20.3125 17.527344 20.332031 17.5 C 20.351562 17.472656 20.417969 17.394531 20.484375 17.324219 C 20.589844 17.210938 20.628906 17.136719 20.804688 16.742188 C 20.910156 16.492188 21.117188 16.019531 21.257812 15.691406 C 21.800781 14.445312 22.125 13.703125 22.363281 13.164062 C 22.496094 12.855469 23.285156 11.046875 24.117188 9.140625 C 24.953125 7.234375 25.644531 5.632812 25.660156 5.574219 C 25.675781 5.515625 25.898438 4.984375 26.15625 4.394531 C 26.414062 3.804688 26.644531 3.277344 26.667969 3.226562 L 26.710938 3.125 L 27.136719 3.589844 C 27.367188 3.84375 27.601562 4.101562 27.648438 4.160156 C 27.867188 4.429688 28.300781 4.472656 28.515625 4.25 C 28.753906 3.996094 29.046875 3.003906 28.992188 2.632812 C 28.976562 2.535156 28.957031 2.507812 28.765625 2.328125 C 28.652344 2.21875 28.449219 1.988281 28.320312 1.820312 C 27.511719 0.761719 27.378906 0.613281 27.050781 0.382812 C 26.554688 0.0429688 26.21875 -0.0585938 25.910156 0.0390625 Z M 22.417969 7.488281 C 22.222656 7.980469 22.046875 8.421875 22.027344 8.472656 L 21.992188 8.5625 L 21.875 8.546875 C 21.8125 8.542969 17.59375 8.535156 12.503906 8.535156 L 3.246094 8.535156 L 3.199219 8.351562 C 2.964844 7.441406 2.765625 6.648438 2.765625 6.625 C 2.765625 6.605469 5.28125 6.597656 12.765625 6.597656 L 22.765625 6.597656 Z M 21.128906 10.742188 C 21.121094 10.765625 21 11.074219 20.863281 11.429688 L 20.609375 12.078125 L 4.15625 12.078125 L 3.988281 11.429688 C 3.898438 11.074219 3.820312 10.765625 3.816406 10.742188 C 3.804688 10.703125 4.226562 10.703125 12.472656 10.703125 C 20.722656 10.703125 21.144531 10.703125 21.128906 10.742188 Z M 19.492188 14.90625 C 19.347656 15.269531 19.226562 15.578125 19.21875 15.59375 C 19.210938 15.617188 17.773438 15.621094 12.144531 15.621094 C 7.828125 15.621094 5.074219 15.613281 5.0625 15.601562 C 5.050781 15.582031 4.710938 14.28125 4.710938 14.257812 C 4.710938 14.25 8.097656 14.246094 12.230469 14.246094 L 19.75 14.246094 Z M 19.492188 14.90625 "/>
</g>
</svg>
