<?xml version="1.0" standalone="no"?>
<!DOCTYPE svg PUBLIC "-//W3C//DTD SVG 20010904//EN"
 "http://www.w3.org/TR/2001/REC-SVG-20010904/DTD/svg10.dtd">
<svg version="1.0" xmlns="http://www.w3.org/2000/svg"
 width="35.000000pt" height="43.000000pt" viewBox="0 0 35.000000 43.000000"
 preserveAspectRatio="xMidYMid meet">

<g transform="translate(0.000000,43.000000) scale(0.100000,-0.100000)"
fill="#000000" stroke="none">
<path d="M223 418 c-12 -6 -29 -25 -37 -43 -20 -41 -20 -45 0 -45 23 0 74 55
74 79 0 23 -5 24 -37 9z"/>
<path d="M225 320 c-11 -5 -51 -6 -90 -3 -69 5 -71 4 -100 -27 -27 -29 -30
-37 -30 -98 1 -72 18 -116 63 -164 28 -30 51 -35 84 -17 15 8 32 8 63 -1 54
-15 76 -5 111 55 l26 45 -28 24 c-38 32 -40 93 -5 130 l23 24 -24 15 c-32 21
-69 28 -93 17z"/>
</g>
</svg>
